<svg xmlns="http://www.w3.org/2000/svg" viewBox="92 92.00001525878906 391 392.8399963378906"> 
  <svg xmlns="http://www.w3.org/2000/svg" xmlns:xlink="http://www.w3.org/1999/xlink" version="1.1" viewBox="43.420440673828125 43.41044998168945 713.1693115234375 713.1692504882812" height="251.00000000000003" width="251.00000000000003" y="162.00001525878906" x="162" preserveAspectRatio="xMinYMin" style="overflow: visible;">
  <linearGradient id="linearGradient1603" x1="229.32" x2="570.68" y1="570.68" y2="229.32" gradientTransform="translate(-47.143 52.857)" gradientUnits="userSpaceOnUse" style="">
    <stop stop-color="#edeeee" offset="0"></stop>
    <stop stop-color="#f8f9f9" offset="1"></stop>
  </linearGradient>
  <rect transform="matrix(2.0892 0 0 2.0892 -337.19 -546.12)" stroke-width=".47865" x="182.18" y="282.18" width="341.36" height="341.36" rx="100.4" ry="100.4" fill="url(#linearGradient1603)" style="fill: #ffffff; stroke-width: .47865; fill-opacity: 0; stroke-opacity: 0;">
  </rect>
  <path transform="matrix(2.0892 0 0 2.0892 -337.19 -546.12)" stroke-width=".47865" d="m374.18 410.19a5.02 5.02 0 0 0-5.0195 5.0195v5.0215a5.02 5.02 0 0 0 5.0195 5.0195 5.02 5.02 0 0 0 5.0195-5.0195v-5.0215a5.02 5.02 0 0 0-5.0195-5.0195z" color="#000000" color-rendering="auto" dominantBaseline="auto" fill="#000000" imageRendering="auto" shapeRendering="auto" solidColor="#000000" stop-color="#000000" style="fill: #3C4BCB; stroke-width: .47865; font-feature-settings: normal; font-variant-alternates: normal; font-variant-caps: normal; font-variant-east-asian: normal; font-variant-ligatures: normal; font-variant-numeric: normal; font-variant-position: normal; font-variation-settings: normal; inline-size: 0; isolation: auto; mix-blend-mode: normal; shape-margin: 0; shape-padding: 0; text-decoration-color: #000000; text-decoration-line: none; text-decoration-style: solid; text-indent: 0; text-orientation: mixed; text-transform: none; white-space: normal; fill-opacity: 1;"></path><path transform="matrix(2.0892 0 0 2.0892 -337.19 -546.12)" stroke-width=".47865" d="m354.1 410.19a5.02 5.02 0 0 0-5.0195 5.0195v5.0215a5.02 5.02 0 0 0 5.0195 5.0195 5.02 5.02 0 0 0 5.0195-5.0195v-5.0215a5.02 5.02 0 0 0-5.0195-5.0195z" color="#000000" color-rendering="auto" dominantBaseline="auto" fill="#000000" imageRendering="auto" shapeRendering="auto" solidColor="#000000" stop-color="#000000" style="fill: #3C4BCB; stroke-width: .47865; font-feature-settings: normal; font-variant-alternates: normal; font-variant-caps: normal; font-variant-east-asian: normal; font-variant-ligatures: normal; font-variant-numeric: normal; font-variant-position: normal; font-variation-settings: normal; inline-size: 0; isolation: auto; mix-blend-mode: normal; shape-margin: 0; shape-padding: 0; text-decoration-color: #000000; text-decoration-line: none; text-decoration-style: solid; text-indent: 0; text-orientation: mixed; text-transform: none; white-space: normal; fill-opacity: 1;">
  </path>
  <path transform="matrix(2.0892 0 0 2.0892 -337.19 -546.12)" stroke-width=".47865" d="m359.07 370.03c-19.347 0-35.141 15.791-35.141 35.139l2e-3 60.24c4.3e-4 13.921-11.179 25.1-25.1 25.1-13.923 0-25.144-11.183-25.102-25.086l0.0566-20.08c0.0156-5.6216 4.4344-10.055 10.039-10.055 5.6047 0 10.041 4.4363 10.041 10.041a5.02 5.02 0 0 0 5.0195 5.0195 5.02 5.02 0 0 0 5.0195-5.0195c0-11.03-9.0497-20.08-20.08-20.08-11.03 0-20.05 9.0529-20.08 20.066l-0.0547 20.078c-0.0586 19.366 15.792 35.154 35.141 35.154 19.347 0 35.139-15.793 35.139-35.141v-60.238c-4.3e-4 -13.921 11.179-25.1 25.1-25.1 13.923 0 25.088 11.177 25.1 25.104l0.0547 65.26a5.02 5.02 0 0 0 5.0254 5.0156 5.02 5.02 0 0 0 5.0156-5.0234l-0.0547-65.26c-0.0163-19.342-15.792-35.135-35.141-35.135zm75.355 40.158c-11.03 0-20.078 9.0497-20.078 20.08l-0.0566 40.152c-0.0185 13.93-11.178 25.107-25.1 25.107-13.923 0-25.099-11.178-25.1-25.1v-5.0215a5.0205 5.0205 0 0 0-10.041 0c4.6e-4 30.557-24.663 55.221-55.219 55.221-15.278-4.5e-4 -29.047-6.1759-39.045-16.174a5.02 5.02 0 0 0-7.0996 0 5.02 5.02 0 0 0 0 7.0996c11.804 11.804 28.154 19.113 46.145 19.113 27.61 0 51.216-17.266 60.732-41.545 6.2404 9.8409 17.159 16.445 29.627 16.445a5.0205 5.0205 0 0 0 2e-3 0c19.347-5.9e-4 35.113-15.793 35.139-35.133l0.0547-40.158a5.0205 5.0205 0 0 0 0-8e-3c0-5.6047 4.4343-10.039 10.039-10.039a5.02 5.02 0 0 0 5.0215-5.0215 5.02 5.02 0 0 0-5.0215-5.0195zm15.07 30.119a5.02 5.02 0 0 0-5.0293 5.0098l-0.0566 25.1c-0.0674 30.57-24.663 55.23-55.219 55.23-7.6393 0-14.89-1.5454-21.492-4.3379a5.02 5.02 0 0 0-6.5781 2.668 5.02 5.02 0 0 0 2.668 6.5801c7.8109 3.3037 16.407 5.1309 25.402 5.1309 35.982 0 65.18-29.281 65.26-65.25l0.0547-25.1a5.02 5.02 0 0 0-5.0098-5.0312z" color="#000000" color-rendering="auto" dominantBaseline="auto" fill="#000000" imageRendering="auto" shapeRendering="auto" solidColor="#000000" stop-color="#000000" style="fill: #3C4BCB; stroke-width: .47865; font-feature-settings: normal; font-variant-alternates: normal; font-variant-caps: normal; font-variant-east-asian: normal; font-variant-ligatures: normal; font-variant-numeric: normal; font-variant-position: normal; font-variation-settings: normal; inline-size: 0; isolation: auto; mix-blend-mode: normal; shape-margin: 0; shape-padding: 0; text-decoration-color: #000000; text-decoration-line: none; text-decoration-style: solid; text-indent: 0; text-orientation: mixed; text-transform: none; white-space: normal; fill-opacity: 1;">
  </path>
  </svg>
  <svg y="366.00001525878906" viewBox="3.180000066757202 25.899999618530273 141.7100067138672 48.839996337890625" x="216.64499603271486" height="48.839996337890625" width="141.7100067138672" xmlns="http://www.w3.org/2000/svg" style="overflow: visible;">
  <g fill="#3b3342" fill-opacity="1" style="">
    <path d="M42.48 54.54L42.48 54.54Q42.48 60.46 39.89 65.01Q37.30 69.56 32.86 72.15Q28.42 74.74 22.87 74.74L22.87 74.74Q17.32 74.74 12.88 72.15Q8.44 69.56 5.81 65.01Q3.18 60.46 3.18 54.54L3.18 54.54Q3.18 48.54 5.81 43.99Q8.44 39.44 12.88 36.82Q17.32 34.19 22.87 34.19L22.87 34.19Q28.42 34.19 32.86 36.82Q37.30 39.44 39.89 43.99Q42.48 48.54 42.48 54.54ZM35.08 54.54L35.08 54.54Q35.08 50.47 33.45 47.47Q31.82 44.47 29.04 42.73Q26.27 41.00 22.87 41.00L22.87 41.00Q19.46 41.00 16.65 42.73Q13.84 44.47 12.21 47.47Q10.58 50.47 10.58 54.54L10.58 54.54Q10.58 58.46 12.21 61.49Q13.84 64.53 16.65 66.23Q19.46 67.93 22.87 67.93L22.87 67.93Q26.27 67.93 29.04 66.23Q31.82 64.53 33.45 61.49Q35.08 58.46 35.08 54.54ZM50.32 35.52L50.32 35.52L67.71 35.52Q69.19 35.52 70.19 36.52Q71.19 37.52 71.19 39.00L71.19 39.00Q71.19 40.40 70.19 41.37Q69.19 42.33 67.71 42.33L67.71 42.33L50.32 42.33Q48.84 42.33 47.84 41.33Q46.84 40.33 46.84 38.92L46.84 38.92Q46.84 37.44 47.84 36.48Q48.84 35.52 50.32 35.52ZM58.09 25.90L58.09 25.90Q59.72 25.90 60.75 26.97Q61.79 28.05 61.79 29.67L61.79 29.67L61.79 64.01Q61.79 65.34 62.23 66.16Q62.68 66.97 63.45 67.27Q64.23 67.56 65.05 67.56L65.05 67.56Q65.86 67.56 66.49 67.27Q67.12 66.97 68.01 66.97L68.01 66.97Q68.89 66.97 69.63 67.78Q70.37 68.60 70.37 70.00L70.37 70.00Q70.37 71.78 68.45 72.89Q66.53 74 64.31 74L64.31 74Q63.05 74 61.35 73.78Q59.64 73.56 58.05 72.67Q56.46 71.78 55.43 69.82Q54.39 67.86 54.39 64.31L54.39 64.31L54.39 29.67Q54.39 28.05 55.46 26.97Q56.54 25.90 58.09 25.90ZM78.88 35.52L78.88 35.52L96.27 35.52Q97.75 35.52 98.75 36.52Q99.75 37.52 99.75 39.00L99.75 39.00Q99.75 40.40 98.75 41.37Q97.75 42.33 96.27 42.33L96.27 42.33L78.88 42.33Q77.40 42.33 76.41 41.33Q75.41 40.33 75.41 38.92L75.41 38.92Q75.41 37.44 76.41 36.48Q77.40 35.52 78.88 35.52ZM86.65 25.90L86.65 25.90Q88.28 25.90 89.32 26.97Q90.35 28.05 90.35 29.67L90.35 29.67L90.35 64.01Q90.35 65.34 90.80 66.16Q91.24 66.97 92.02 67.27Q92.80 67.56 93.61 67.56L93.61 67.56Q94.42 67.56 95.05 67.27Q95.68 66.97 96.57 66.97L96.57 66.97Q97.46 66.97 98.20 67.78Q98.94 68.60 98.94 70.00L98.94 70.00Q98.94 71.78 97.01 72.89Q95.09 74 92.87 74L92.87 74Q91.61 74 89.91 73.78Q88.21 73.56 86.62 72.67Q85.03 71.78 83.99 69.82Q82.95 67.86 82.95 64.31L82.95 64.31L82.95 29.67Q82.95 28.05 84.03 26.97Q85.10 25.90 86.65 25.90ZM144.89 54.54L144.89 54.54Q144.89 60.46 142.30 65.01Q139.71 69.56 135.27 72.15Q130.83 74.74 125.28 74.74L125.28 74.74Q119.73 74.74 115.29 72.15Q110.85 69.56 108.22 65.01Q105.60 60.46 105.60 54.54L105.60 54.54Q105.60 48.54 108.22 43.99Q110.85 39.44 115.29 36.82Q119.73 34.19 125.28 34.19L125.28 34.19Q130.83 34.19 135.27 36.82Q139.71 39.44 142.30 43.99Q144.89 48.54 144.89 54.54ZM137.49 54.54L137.49 54.54Q137.49 50.47 135.86 47.47Q134.24 44.47 131.46 42.73Q128.69 41.00 125.28 41.00L125.28 41.00Q121.88 41.00 119.07 42.73Q116.25 44.47 114.63 47.47Q113.00 50.47 113.00 54.54L113.00 54.54Q113.00 58.46 114.63 61.49Q116.25 64.53 119.07 66.23Q121.88 67.93 125.28 67.93L125.28 67.93Q128.69 67.93 131.46 66.23Q134.24 64.53 135.86 61.49Q137.49 58.46 137.49 54.54Z" transform="translate(0, 0)">
    </path>
  </g>
  </svg>
</svg>