<svg width="82" height="22" viewBox="0 0 82 22" fill="none" xmlns="http://www.w3.org/2000/svg">
<path d="M16.9791 5.16602C16.7956 5.16603 16.6196 5.23576 16.4898 5.35985C16.36 5.48395 16.2871 5.65226 16.2871 5.82777V6.48978C16.2871 6.66528 16.36 6.83359 16.4898 6.95769C16.6196 7.08179 16.7956 7.15151 16.9791 7.15153C17.1627 7.15151 17.3387 7.08179 17.4684 6.95769C17.5982 6.83359 17.6711 6.66528 17.6711 6.48978V5.82777C17.6711 5.65226 17.5982 5.48395 17.4684 5.35985C17.3387 5.23576 17.1627 5.16603 16.9791 5.16602Z" fill="#0B1565"/>
<path d="M14.2155 5.16602C14.0319 5.16603 13.8559 5.23576 13.7261 5.35985C13.5964 5.48395 13.5235 5.65226 13.5234 5.82777V6.48978C13.5235 6.66528 13.5964 6.83359 13.7261 6.95769C13.8559 7.08179 14.0319 7.15151 14.2155 7.15153C14.399 7.15151 14.575 7.08179 14.7048 6.95769C14.8345 6.83359 14.9074 6.66528 14.9075 6.48978V5.82777C14.9074 5.65226 14.8345 5.48395 14.7048 5.35985C14.575 5.23576 14.399 5.16603 14.2155 5.16602Z" fill="#0B1565"/>
<path d="M14.8553 0.000102233C12.1906 0.000102233 10.0152 2.03469 10.0152 4.52759L10.0155 12.2892C10.0155 14.0829 8.47573 15.5232 6.55833 15.5232C4.64065 15.5232 3.09513 14.0823 3.10091 12.291L3.10871 9.7038C3.11086 8.97948 3.71948 8.40826 4.49142 8.40826C5.26339 8.40826 5.87442 8.97986 5.87442 9.702C5.87444 9.87352 5.94729 10.038 6.07694 10.1593C6.20659 10.2806 6.38242 10.3487 6.56578 10.3487C6.74913 10.3487 6.92497 10.2806 7.05462 10.1593C7.18427 10.038 7.25712 9.87352 7.25714 9.702C7.25714 8.28084 6.01068 7.11479 4.49142 7.11479C2.97221 7.11479 1.72984 8.28121 1.72571 9.70019L1.71818 12.2871C1.71011 14.7824 3.89329 16.8166 6.55831 16.8166C9.22307 16.8166 11.3982 14.7817 11.3982 12.2888V4.52746C11.3981 2.73381 12.9379 1.29345 14.8553 1.29345C16.773 1.29345 18.3108 2.73355 18.3125 4.52797L18.32 12.9364C18.3201 13.0213 18.338 13.1054 18.3729 13.1839C18.4077 13.2624 18.4587 13.3336 18.523 13.3936C18.5873 13.4536 18.6635 13.5012 18.7475 13.5336C18.8314 13.5661 18.9213 13.5827 19.0122 13.5826C19.1955 13.5825 19.3713 13.5142 19.5008 13.3928C19.6304 13.2714 19.7031 13.1069 19.703 12.9354L19.6954 4.52697C19.6932 2.03485 17.5204 0.000102233 14.8553 0.000102233ZM25.2343 5.17426C23.7151 5.17426 22.4689 6.34027 22.4689 7.76146L22.4611 12.9348C22.4585 14.7297 20.9215 16.1698 19.004 16.1698C17.0863 16.1698 15.5469 14.7295 15.5468 12.9357V12.2888C15.5468 12.1172 15.474 11.9527 15.3443 11.8313C15.2146 11.71 15.0387 11.6419 14.8553 11.6419C14.6719 11.6419 14.496 11.71 14.3664 11.8313C14.2367 11.9527 14.1638 12.1172 14.1638 12.2888C14.1639 16.2259 10.7669 19.4037 6.55825 19.4037C4.45394 19.4036 2.55747 18.608 1.18039 17.3198C1.11619 17.2597 1.03996 17.212 0.95607 17.1795C0.872179 17.147 0.782266 17.1303 0.691462 17.1303C0.600659 17.1303 0.510745 17.147 0.426854 17.1795C0.342963 17.212 0.266739 17.2597 0.202533 17.3198C0.138323 17.3798 0.0873867 17.4511 0.0526362 17.5296C0.0178857 17.6081 0 17.6922 0 17.7771C0 17.8621 0.0178857 17.9462 0.0526362 18.0247C0.0873867 18.1031 0.138323 18.1744 0.202533 18.2345C1.82835 19.7554 4.08032 20.6971 6.5583 20.6971C10.3612 20.6971 13.6125 18.4725 14.9232 15.3443C15.7827 16.6122 17.2866 17.4631 19.0039 17.4631C19.004 17.4631 19.0041 17.4631 19.0041 17.4631C21.6689 17.463 23.8404 15.4283 23.844 12.9364L23.8515 7.76225C23.8515 7.76191 23.8515 7.76156 23.8515 7.76122C23.8515 7.03908 24.4623 6.46775 25.2343 6.46775C25.3251 6.46777 25.415 6.45105 25.499 6.41855C25.5829 6.38604 25.6591 6.33838 25.7234 6.2783C25.7876 6.21822 25.8385 6.14688 25.8733 6.06837C25.908 5.98986 25.9259 5.90572 25.9259 5.82075C25.9259 5.7358 25.908 5.65168 25.8732 5.5732C25.8385 5.49473 25.7875 5.42342 25.7233 5.36337C25.6591 5.30331 25.5828 5.25568 25.4989 5.22319C25.415 5.1907 25.3251 5.17399 25.2343 5.17401L25.2343 5.17426ZM27.31 9.05494C27.1266 9.05462 26.9506 9.12244 26.8207 9.24349C26.6908 9.36454 26.6177 9.5289 26.6173 9.70043L26.6095 12.9344C26.6002 16.8732 23.2125 20.0505 19.0039 20.0505C17.9517 20.0505 16.953 19.8514 16.0437 19.4916C15.8748 19.4248 15.6845 19.4235 15.5146 19.488C15.3447 19.5525 15.2091 19.6774 15.1377 19.8354C15.1023 19.9136 15.0837 19.9976 15.083 20.0826C15.0823 20.1675 15.0996 20.2518 15.1337 20.3305C15.1678 20.4092 15.2182 20.4809 15.2819 20.5414C15.3457 20.6019 15.4215 20.6501 15.5052 20.6832C16.581 21.1089 17.765 21.3443 19.0039 21.3443C23.9599 21.3443 27.9814 17.5716 27.9925 12.9372L28 9.70314C28.0002 9.61819 27.9825 9.53404 27.9479 9.45548C27.9134 9.37693 27.8626 9.30551 27.7985 9.24532C27.7344 9.18512 27.6583 9.13732 27.5745 9.10465C27.4907 9.07198 27.4008 9.05511 27.31 9.05494Z" fill="#0B1565"/>
<path d="M48.776 12.688C48.776 13.968 48.496 15.104 47.936 16.096C47.376 17.072 46.616 17.84 45.656 18.4C44.696 18.96 43.616 19.24 42.416 19.24C41.216 19.24 40.136 18.96 39.176 18.4C38.216 17.84 37.448 17.072 36.872 16.096C36.312 15.104 36.032 13.968 36.032 12.688C36.032 11.392 36.312 10.256 36.872 9.28C37.448 8.288 38.216 7.512 39.176 6.952C40.136 6.376 41.216 6.088 42.416 6.088C43.616 6.088 44.696 6.376 45.656 6.952C46.616 7.512 47.376 8.288 47.936 9.28C48.496 10.256 48.776 11.392 48.776 12.688ZM46.376 12.688C46.376 11.808 46.2 11.048 45.848 10.408C45.496 9.752 45.016 9.24 44.408 8.872C43.816 8.488 43.152 8.296 42.416 8.296C41.68 8.296 41.008 8.488 40.4 8.872C39.792 9.24 39.312 9.752 38.96 10.408C38.608 11.048 38.432 11.808 38.432 12.688C38.432 13.536 38.608 14.288 38.96 14.944C39.312 15.6 39.792 16.112 40.4 16.48C41.008 16.848 41.68 17.032 42.416 17.032C43.152 17.032 43.816 16.848 44.408 16.48C45.016 16.112 45.496 15.6 45.848 14.944C46.2 14.288 46.376 13.536 46.376 12.688ZM51.3245 6.52H56.9645C57.2845 6.52 57.5485 6.632 57.7565 6.856C57.9805 7.064 58.0925 7.328 58.0925 7.648C58.0925 7.952 57.9805 8.208 57.7565 8.416C57.5485 8.624 57.2845 8.728 56.9645 8.728H51.3245C51.0045 8.728 50.7325 8.624 50.5085 8.416C50.3005 8.192 50.1965 7.928 50.1965 7.624C50.1965 7.304 50.3005 7.04 50.5085 6.832C50.7325 6.624 51.0045 6.52 51.3245 6.52ZM53.8445 3.4C54.1965 3.4 54.4845 3.52 54.7085 3.76C54.9325 3.984 55.0445 4.272 55.0445 4.624V15.76C55.0445 16.048 55.0925 16.28 55.1885 16.456C55.2845 16.632 55.4125 16.752 55.5725 16.816C55.7485 16.88 55.9245 16.912 56.1005 16.912C56.2765 16.912 56.4285 16.88 56.5565 16.816C56.7005 16.752 56.8685 16.72 57.0605 16.72C57.2525 16.72 57.4285 16.808 57.5885 16.984C57.7485 17.16 57.8285 17.4 57.8285 17.704C57.8285 18.088 57.6205 18.4 57.2045 18.64C56.7885 18.88 56.3405 19 55.8605 19C55.5885 19 55.2685 18.976 54.9005 18.928C54.5325 18.88 54.1725 18.76 53.8205 18.568C53.4845 18.376 53.2045 18.072 52.9805 17.656C52.7565 17.224 52.6445 16.624 52.6445 15.856V4.624C52.6445 4.272 52.7565 3.984 52.9805 3.76C53.2205 3.52 53.5085 3.4 53.8445 3.4ZM60.5823 6.52H66.2223C66.5423 6.52 66.8063 6.632 67.0143 6.856C67.2383 7.064 67.3503 7.328 67.3503 7.648C67.3503 7.952 67.2383 8.208 67.0143 8.416C66.8063 8.624 66.5423 8.728 66.2223 8.728H60.5823C60.2623 8.728 59.9903 8.624 59.7663 8.416C59.5583 8.192 59.4543 7.928 59.4543 7.624C59.4543 7.304 59.5583 7.04 59.7663 6.832C59.9903 6.624 60.2623 6.52 60.5823 6.52ZM63.1023 3.4C63.4543 3.4 63.7423 3.52 63.9663 3.76C64.1903 3.984 64.3023 4.272 64.3023 4.624V15.76C64.3023 16.048 64.3503 16.28 64.4463 16.456C64.5423 16.632 64.6703 16.752 64.8303 16.816C65.0063 16.88 65.1823 16.912 65.3583 16.912C65.5343 16.912 65.6863 16.88 65.8143 16.816C65.9583 16.752 66.1263 16.72 66.3183 16.72C66.5103 16.72 66.6863 16.808 66.8463 16.984C67.0063 17.16 67.0863 17.4 67.0863 17.704C67.0863 18.088 66.8783 18.4 66.4623 18.64C66.0463 18.88 65.5983 19 65.1183 19C64.8463 19 64.5263 18.976 64.1583 18.928C63.7903 18.88 63.4303 18.76 63.0783 18.568C62.7423 18.376 62.4623 18.072 62.2383 17.656C62.0143 17.224 61.9023 16.624 61.9023 15.856V4.624C61.9023 4.272 62.0143 3.984 62.2383 3.76C62.4783 3.52 62.7663 3.4 63.1023 3.4ZM81.9869 12.688C81.9869 13.968 81.7069 15.104 81.1469 16.096C80.5869 17.072 79.8269 17.84 78.8669 18.4C77.9069 18.96 76.8269 19.24 75.6269 19.24C74.4269 19.24 73.3469 18.96 72.3869 18.4C71.4269 17.84 70.6589 17.072 70.0829 16.096C69.5229 15.104 69.2429 13.968 69.2429 12.688C69.2429 11.392 69.5229 10.256 70.0829 9.28C70.6589 8.288 71.4269 7.512 72.3869 6.952C73.3469 6.376 74.4269 6.088 75.6269 6.088C76.8269 6.088 77.9069 6.376 78.8669 6.952C79.8269 7.512 80.5869 8.288 81.1469 9.28C81.7069 10.256 81.9869 11.392 81.9869 12.688ZM79.5869 12.688C79.5869 11.808 79.4109 11.048 79.0589 10.408C78.7069 9.752 78.2269 9.24 77.6189 8.872C77.0269 8.488 76.3629 8.296 75.6269 8.296C74.8909 8.296 74.2189 8.488 73.6109 8.872C73.0029 9.24 72.5229 9.752 72.1709 10.408C71.8189 11.048 71.6429 11.808 71.6429 12.688C71.6429 13.536 71.8189 14.288 72.1709 14.944C72.5229 15.6 73.0029 16.112 73.6109 16.48C74.2189 16.848 74.8909 17.032 75.6269 17.032C76.3629 17.032 77.0269 16.848 77.6189 16.48C78.2269 16.112 78.7069 15.6 79.0589 14.944C79.4109 14.288 79.5869 13.536 79.5869 12.688Z" fill="#0B1565"/>
</svg>
