<svg width="137" height="32" viewBox="0 0 137 32" fill="none" xmlns="http://www.w3.org/2000/svg">
<path d="M25.4574 7.74023C25.1823 7.74026 24.9184 7.84479 24.7238 8.03084C24.5293 8.2169 24.4199 8.46923 24.4199 8.73235V9.72486C24.4199 9.98798 24.5293 10.2403 24.7238 10.4264C24.9184 10.6124 25.1823 10.717 25.4574 10.717C25.7326 10.717 25.9964 10.6124 26.191 10.4264C26.3856 10.2403 26.4949 9.98798 26.4949 9.72486V8.73235C26.4949 8.46923 26.3856 8.2169 26.191 8.03084C25.9964 7.84479 25.7326 7.74026 25.4574 7.74023Z" fill="white"/>
<path d="M21.309 7.74023C21.0338 7.74026 20.7699 7.84479 20.5754 8.03084C20.3808 8.2169 20.2715 8.46923 20.2715 8.73235V9.72486C20.2715 9.98798 20.3808 10.2403 20.5754 10.4264C20.7699 10.6124 21.0338 10.717 21.309 10.717C21.5841 10.717 21.848 10.6124 22.0426 10.4264C22.2371 10.2403 22.3464 9.98798 22.3465 9.72486V8.73235C22.3464 8.46923 22.2371 8.2169 22.0426 8.03084C21.848 7.84479 21.5841 7.74026 21.309 7.74023Z" fill="white"/>
<path d="M22.2716 0.000153271C18.2765 0.000153271 15.0151 3.05047 15.0151 6.78789L15.0155 18.4243C15.0156 21.1134 12.7071 23.2729 9.83244 23.2729C6.9574 23.2729 4.64031 21.1127 4.64898 18.4271L4.66067 14.5482C4.66389 13.4623 5.57635 12.6059 6.73368 12.6059C7.89102 12.6059 8.80711 13.4629 8.80711 14.5455C8.80713 14.8027 8.91635 15.0493 9.11072 15.2311C9.3051 15.4129 9.56872 15.5151 9.84361 15.5151C10.1185 15.5151 10.3821 15.4129 10.5765 15.2311C10.7709 15.0493 10.8801 14.8027 10.8801 14.5455C10.8801 12.4149 9.01139 10.6667 6.73368 10.6667C4.45603 10.6667 2.59343 12.4154 2.58724 14.5428L2.57595 18.4213C2.56385 22.1622 5.83693 25.2119 9.83242 25.2119C13.8275 25.2119 17.0885 22.1612 17.0885 18.4238V6.7877C17.0884 4.0986 19.3969 1.93917 22.2715 1.93917C25.1466 1.93917 27.4521 4.09822 27.4546 6.78847L27.4659 19.3946C27.466 19.522 27.4929 19.6481 27.5451 19.7657C27.5974 19.8833 27.6738 19.9902 27.7702 20.0801C27.8666 20.1701 27.9809 20.2414 28.1068 20.29C28.2326 20.3387 28.3675 20.3636 28.5036 20.3635C28.7785 20.3633 29.042 20.2609 29.2363 20.0789C29.4305 19.897 29.5395 19.6503 29.5393 19.3931L29.528 6.78697C29.5246 3.05071 26.267 0.000153271 22.2716 0.000153271ZM37.8321 7.7574C35.5544 7.7574 33.686 9.50552 33.686 11.6362L33.6743 19.3923C33.6705 22.0831 31.3661 24.2422 28.4913 24.2422C25.6163 24.2422 23.3085 22.083 23.3082 19.3937V18.4237C23.3082 18.1665 23.199 17.9198 23.0046 17.7379C22.8102 17.556 22.5465 17.4539 22.2715 17.4539C21.9966 17.4539 21.7329 17.556 21.5385 17.7379C21.344 17.9198 21.2348 18.1665 21.2348 18.4237C21.2349 24.3263 16.142 29.0906 9.83232 29.0906C6.67747 29.0905 3.83423 27.8976 1.76968 25.9663C1.67342 25.8763 1.55914 25.8048 1.43337 25.7561C1.3076 25.7073 1.1728 25.6823 1.03666 25.6823C0.900526 25.6823 0.765725 25.7073 0.639953 25.7561C0.514181 25.8048 0.399903 25.8763 0.303644 25.9663C0.207378 26.0564 0.131013 26.1633 0.0789138 26.2809C0.0268147 26.3986 0 26.5247 0 26.652C0 26.7794 0.0268147 26.9055 0.0789138 27.0231C0.131013 27.1408 0.207378 27.2477 0.303644 27.3377C2.74112 29.6179 6.11733 31.0298 9.8324 31.0298C15.5338 31.0298 20.4083 27.6945 22.3733 23.0046C23.6619 24.9055 25.9166 26.1812 28.4912 26.1812C28.4913 26.1812 28.4914 26.1812 28.4916 26.1812C32.4867 26.1811 35.7423 23.1305 35.7476 19.3946L35.7589 11.6374C35.7589 11.6369 35.7589 11.6364 35.7589 11.6359C35.7589 10.5532 36.6746 9.69664 37.832 9.69664C37.9681 9.69668 38.103 9.67162 38.2288 9.62288C38.3546 9.57415 38.469 9.5027 38.5653 9.41262C38.6616 9.32254 38.7379 9.21559 38.79 9.09789C38.8421 8.98019 38.8689 8.85404 38.8689 8.72664C38.8689 8.59928 38.842 8.47317 38.7899 8.35552C38.7378 8.23786 38.6614 8.13096 38.5651 8.04092C38.4688 7.95088 38.3545 7.87947 38.2287 7.83076C38.1029 7.78205 37.9681 7.757 37.832 7.75704L37.8321 7.7574ZM40.944 13.5754C40.6691 13.575 40.4052 13.6766 40.2105 13.8581C40.0157 14.0396 39.906 14.286 39.9054 14.5432L39.8937 19.3917C39.8798 25.2968 34.8009 30.0604 28.4912 30.0604C26.9137 30.0604 25.4165 29.7619 24.0532 29.2224C23.8 29.1223 23.5147 29.1203 23.26 29.217C23.0052 29.3136 22.802 29.501 22.6949 29.7378C22.6418 29.8551 22.614 29.981 22.6129 30.1084C22.6119 30.2358 22.6377 30.3621 22.6889 30.4801C22.74 30.5981 22.8155 30.7056 22.9111 30.7963C23.0067 30.887 23.1204 30.9593 23.2458 31.0089C24.8587 31.647 26.6338 32 28.4912 32C35.9214 32 41.9506 26.3438 41.9671 19.3958L41.9784 14.5472C41.9787 14.4199 41.9522 14.2937 41.9004 14.1759C41.8486 14.0582 41.7724 13.9511 41.6764 13.8609C41.5803 13.7706 41.4662 13.6989 41.3405 13.65C41.2148 13.601 41.0801 13.5757 40.944 13.5754Z" fill="white"/>
<path d="M76.682 18.691C76.682 20.9843 76.1803 23.0197 75.177 24.797C74.1737 26.5457 72.812 27.9217 71.092 28.925C69.372 29.9283 67.437 30.43 65.287 30.43C63.137 30.43 61.202 29.9283 59.482 28.925C57.762 27.9217 56.386 26.5457 55.354 24.797C54.3507 23.0197 53.849 20.9843 53.849 18.691C53.849 16.369 54.3507 14.3337 55.354 12.585C56.386 10.8077 57.762 9.41733 59.482 8.414C61.202 7.382 63.137 6.866 65.287 6.866C67.437 6.866 69.372 7.382 71.092 8.414C72.812 9.41733 74.1737 10.8077 75.177 12.585C76.1803 14.3337 76.682 16.369 76.682 18.691ZM72.382 18.691C72.382 17.1143 72.0667 15.7527 71.436 14.606C70.8053 13.4307 69.9453 12.5133 68.856 11.854C67.7953 11.166 66.6057 10.822 65.287 10.822C63.9683 10.822 62.7643 11.166 61.675 11.854C60.5857 12.5133 59.7257 13.4307 59.095 14.606C58.4643 15.7527 58.149 17.1143 58.149 18.691C58.149 20.2103 58.4643 21.5577 59.095 22.733C59.7257 23.9083 60.5857 24.8257 61.675 25.485C62.7643 26.1443 63.9683 26.474 65.287 26.474C66.6057 26.474 67.7953 26.1443 68.856 25.485C69.9453 24.8257 70.8053 23.9083 71.436 22.733C72.0667 21.5577 72.382 20.2103 72.382 18.691ZM81.2481 7.64H91.3531C91.9264 7.64 92.3994 7.84066 92.7721 8.242C93.1734 8.61467 93.3741 9.08767 93.3741 9.661C93.3741 10.2057 93.1734 10.6643 92.7721 11.037C92.3994 11.4097 91.9264 11.596 91.3531 11.596H81.2481C80.6747 11.596 80.1874 11.4097 79.7861 11.037C79.4134 10.6357 79.2271 10.1627 79.2271 9.618C79.2271 9.04467 79.4134 8.57167 79.7861 8.199C80.1874 7.82633 80.6747 7.64 81.2481 7.64ZM85.7631 2.05C86.3937 2.05 86.9097 2.265 87.3111 2.695C87.7124 3.09633 87.9131 3.61233 87.9131 4.243V24.195C87.9131 24.711 87.9991 25.1267 88.1711 25.442C88.3431 25.7573 88.5724 25.9723 88.8591 26.087C89.1744 26.2017 89.4897 26.259 89.8051 26.259C90.1204 26.259 90.3927 26.2017 90.6221 26.087C90.8801 25.9723 91.1811 25.915 91.5251 25.915C91.8691 25.915 92.1844 26.0727 92.4711 26.388C92.7577 26.7033 92.9011 27.1333 92.9011 27.678C92.9011 28.366 92.5284 28.925 91.7831 29.355C91.0377 29.785 90.2351 30 89.3751 30C88.8877 30 88.3144 29.957 87.6551 29.871C86.9957 29.785 86.3507 29.57 85.7201 29.226C85.1181 28.882 84.6164 28.3373 84.2151 27.592C83.8137 26.818 83.6131 25.743 83.6131 24.367V4.243C83.6131 3.61233 83.8137 3.09633 84.2151 2.695C84.6451 2.265 85.1611 2.05 85.7631 2.05ZM97.835 7.64H107.94C108.513 7.64 108.986 7.84066 109.359 8.242C109.76 8.61467 109.961 9.08767 109.961 9.661C109.961 10.2057 109.76 10.6643 109.359 11.037C108.986 11.4097 108.513 11.596 107.94 11.596H97.835C97.2616 11.596 96.7743 11.4097 96.373 11.037C96.0003 10.6357 95.814 10.1627 95.814 9.618C95.814 9.04467 96.0003 8.57167 96.373 8.199C96.7743 7.82633 97.2616 7.64 97.835 7.64ZM102.35 2.05C102.981 2.05 103.497 2.265 103.898 2.695C104.299 3.09633 104.5 3.61233 104.5 4.243V24.195C104.5 24.711 104.586 25.1267 104.758 25.442C104.93 25.7573 105.159 25.9723 105.446 26.087C105.761 26.2017 106.077 26.259 106.392 26.259C106.707 26.259 106.98 26.2017 107.209 26.087C107.467 25.9723 107.768 25.915 108.112 25.915C108.456 25.915 108.771 26.0727 109.058 26.388C109.345 26.7033 109.488 27.1333 109.488 27.678C109.488 28.366 109.115 28.925 108.37 29.355C107.625 29.785 106.822 30 105.962 30C105.475 30 104.901 29.957 104.242 29.871C103.583 29.785 102.938 29.57 102.307 29.226C101.705 28.882 101.203 28.3373 100.802 27.592C100.401 26.818 100.2 25.743 100.2 24.367V4.243C100.2 3.61233 100.401 3.09633 100.802 2.695C101.232 2.265 101.748 2.05 102.35 2.05ZM136.185 18.691C136.185 20.9843 135.683 23.0197 134.68 24.797C133.677 26.5457 132.315 27.9217 130.595 28.925C128.875 29.9283 126.94 30.43 124.79 30.43C122.64 30.43 120.705 29.9283 118.985 28.925C117.265 27.9217 115.889 26.5457 114.857 24.797C113.854 23.0197 113.352 20.9843 113.352 18.691C113.352 16.369 113.854 14.3337 114.857 12.585C115.889 10.8077 117.265 9.41733 118.985 8.414C120.705 7.382 122.64 6.866 124.79 6.866C126.94 6.866 128.875 7.382 130.595 8.414C132.315 9.41733 133.677 10.8077 134.68 12.585C135.683 14.3337 136.185 16.369 136.185 18.691ZM131.885 18.691C131.885 17.1143 131.57 15.7527 130.939 14.606C130.308 13.4307 129.448 12.5133 128.359 11.854C127.298 11.166 126.109 10.822 124.79 10.822C123.471 10.822 122.267 11.166 121.178 11.854C120.089 12.5133 119.229 13.4307 118.598 14.606C117.967 15.7527 117.652 17.1143 117.652 18.691C117.652 20.2103 117.967 21.5577 118.598 22.733C119.229 23.9083 120.089 24.8257 121.178 25.485C122.267 26.1443 123.471 26.474 124.79 26.474C126.109 26.474 127.298 26.1443 128.359 25.485C129.448 24.8257 130.308 23.9083 130.939 22.733C131.57 21.5577 131.885 20.2103 131.885 18.691Z" fill="white"/>
</svg>
