<svg width="40" height="40" viewBox="0 0 40 40" fill="none" xmlns="http://www.w3.org/2000/svg">
<path d="M35 20C35 16.0218 33.4196 12.2064 30.6066 9.3934C27.7936 6.58035 23.9782 5 20 5C15.8066 5.01578 11.7816 6.65204 8.76667 9.56667L5 13.3333" stroke="#16238D" stroke-width="1.5" stroke-linecap="round" stroke-linejoin="round"/>
<path d="M5 5V13.3333H13.3333" stroke="#16238D" stroke-width="1.5" stroke-linecap="round" stroke-linejoin="round"/>
<path d="M5 20C5 23.9782 6.58035 27.7936 9.3934 30.6066C12.2064 33.4196 16.0218 35 20 35C24.1934 34.9842 28.2184 33.348 31.2333 30.4333L35 26.6667" stroke="#16238D" stroke-width="1.5" stroke-linecap="round" stroke-linejoin="round"/>
<path d="M26.666 26.6665H34.9993V34.9998" stroke="#16238D" stroke-width="1.5" stroke-linecap="round" stroke-linejoin="round"/>
<path d="M20 25C22.7614 25 25 22.7614 25 20C25 17.2386 22.7614 15 20 15C17.2386 15 15 17.2386 15 20C15 22.7614 17.2386 25 20 25Z" stroke="#16238D" stroke-width="1.5" stroke-linecap="round" stroke-linejoin="round"/>
<path d="M20 13.3333V14.9999" stroke="#16238D" stroke-width="1.5" stroke-linecap="round" stroke-linejoin="round"/>
<path d="M20 25V26.6667" stroke="#16238D" stroke-width="1.5" stroke-linecap="round" stroke-linejoin="round"/>
<path d="M26.6667 20H25" stroke="#16238D" stroke-width="1.5" stroke-linecap="round" stroke-linejoin="round"/>
<path d="M15.0007 20H13.334" stroke="#16238D" stroke-width="1.5" stroke-linecap="round" stroke-linejoin="round"/>
<path d="M24.9999 15L23.5332 16.4667" stroke="#16238D" stroke-width="1.5" stroke-linecap="round" stroke-linejoin="round"/>
<path d="M16.4667 23.5334L15 25.0001" stroke="#16238D" stroke-width="1.5" stroke-linecap="round" stroke-linejoin="round"/>
<path d="M24.9999 25.0004L23.5332 23.5337" stroke="#16238D" stroke-width="1.5" stroke-linecap="round" stroke-linejoin="round"/>
<path d="M16.4667 16.4667L15 15" stroke="#16238D" stroke-width="1.5" stroke-linecap="round" stroke-linejoin="round"/>
</svg>
