<svg width="65" height="17" viewBox="0 0 65 17" fill="none" xmlns="http://www.w3.org/2000/svg">
<path d="M12.7358 3.875C12.5982 3.87501 12.4662 3.92731 12.3688 4.02038C12.2715 4.11345 12.2168 4.23969 12.2168 4.37131V4.86782C12.2168 4.99945 12.2715 5.12568 12.3688 5.21876C12.4662 5.31183 12.5982 5.36412 12.7358 5.36414C12.8735 5.36412 13.0055 5.31183 13.1028 5.21876C13.2001 5.12568 13.2548 4.99945 13.2548 4.86782V4.37131C13.2548 4.23969 13.2001 4.11345 13.1028 4.02038C13.0055 3.92731 12.8735 3.87501 12.7358 3.875Z" fill="#0B1565"/>
<path d="M10.6616 3.875C10.5239 3.87501 10.3919 3.92731 10.2946 4.02038C10.1973 4.11345 10.1426 4.23969 10.1426 4.37131V4.86782C10.1426 4.99945 10.1973 5.12568 10.2946 5.21876C10.3919 5.31183 10.5239 5.36412 10.6616 5.36414C10.7992 5.36412 10.9312 5.31183 11.0286 5.21876C11.1259 5.12568 11.1806 4.99945 11.1806 4.86782V4.37131C11.1806 4.23969 11.1259 4.11345 11.0286 4.02038C10.9312 3.92731 10.7992 3.87501 10.6616 3.875Z" fill="#0B1565"/>
<path d="M11.1415 7.66747e-05C9.14293 7.66747e-05 7.51139 1.52602 7.51139 3.39569L7.5116 9.2169C7.51165 10.5621 6.3568 11.6424 4.91875 11.6424C3.48048 11.6424 2.32135 10.5618 2.32568 9.21826L2.33153 7.27785C2.33314 6.73461 2.78961 6.3062 3.36857 6.3062C3.94754 6.3062 4.40581 6.7349 4.40581 7.2765C4.40583 7.40514 4.46046 7.52851 4.5577 7.61947C4.65494 7.71043 4.78682 7.76154 4.92433 7.76155C5.06185 7.76154 5.19373 7.71043 5.29097 7.61947C5.38821 7.52851 5.44284 7.40514 5.44285 7.2765C5.44285 6.21063 4.50801 5.33609 3.36857 5.33609C2.22916 5.33609 1.29738 6.21091 1.29428 7.27515L1.28864 9.21536C1.28258 11.0868 2.91996 12.6124 4.91874 12.6124C6.9173 12.6124 8.54863 11.0863 8.54863 9.21661V3.39559C8.54859 2.05035 9.70343 0.970085 11.1415 0.970085C12.5797 0.970085 13.7331 2.05016 13.7343 3.39598L13.74 9.7023C13.7401 9.76601 13.7535 9.82908 13.7796 9.88792C13.8058 9.94676 13.844 10.0002 13.8922 10.0452C13.9404 10.0902 13.9977 10.1259 14.0606 10.1502C14.1236 10.1746 14.191 10.187 14.2591 10.187C14.3966 10.1869 14.5285 10.1357 14.6256 10.0446C14.7228 9.95359 14.7773 9.83018 14.7772 9.70154L14.7716 3.39523C14.7699 1.52614 13.1403 7.66747e-05 11.1415 7.66747e-05ZM18.9257 3.88069C17.7863 3.88069 16.8517 4.7552 16.8517 5.8211L16.8458 9.70114C16.8439 11.0472 15.6911 12.1273 14.253 12.1273C12.8147 12.1273 11.6602 11.0471 11.6601 9.70181V9.21656C11.6601 9.08789 11.6055 8.9645 11.5082 8.87351C11.4109 8.78253 11.279 8.73142 11.1415 8.73142C11.0039 8.73142 10.872 8.78253 10.7748 8.87351C10.6775 8.9645 10.6229 9.08789 10.6229 9.21656C10.6229 12.1694 8.07515 14.5528 4.91869 14.5528C3.34045 14.5527 1.9181 13.956 0.885295 12.9898C0.837141 12.9448 0.779971 12.909 0.717053 12.8847C0.654134 12.8603 0.5867 12.8477 0.518597 12.8477C0.450494 12.8477 0.383059 12.8603 0.320141 12.8847C0.257222 12.909 0.200054 12.9448 0.1519 12.9898C0.103742 13.0349 0.06554 13.0883 0.0394771 13.1472C0.0134142 13.2061 0 13.2691 0 13.3329C0 13.3966 0.0134142 13.4596 0.0394771 13.5185C0.06554 13.5774 0.103742 13.6308 0.1519 13.6759C1.37127 14.8165 3.06024 15.5228 4.91873 15.5228C7.77087 15.5228 10.2094 13.8544 11.1924 11.5082C11.837 12.4592 12.9649 13.0973 14.2529 13.0973C14.253 13.0973 14.253 13.0973 14.2531 13.0973C16.2517 13.0973 17.8803 11.5712 17.883 9.7023L17.8887 5.82169C17.8887 5.82143 17.8887 5.82117 17.8887 5.82092C17.8887 5.27931 18.3467 4.85081 18.9257 4.85081C18.9938 4.85083 19.0613 4.83829 19.1242 4.81391C19.1872 4.78953 19.2444 4.75379 19.2925 4.70873C19.3407 4.66366 19.3789 4.61016 19.405 4.55128C19.431 4.4924 19.4444 4.42929 19.4444 4.36556C19.4444 4.30185 19.431 4.23876 19.4049 4.1799C19.3788 4.12104 19.3406 4.06757 19.2925 4.02253C19.2443 3.97748 19.1871 3.94176 19.1242 3.91739C19.0612 3.89302 18.9938 3.88049 18.9257 3.88051L18.9257 3.88069ZM20.4825 6.7912C20.345 6.79097 20.213 6.84183 20.1156 6.93262C20.0181 7.02341 19.9632 7.14668 19.963 7.27532L19.9571 9.70083C19.9501 12.6549 17.4094 15.0379 14.2529 15.0379C13.4638 15.0379 12.7148 14.8886 12.0328 14.6187C11.9061 14.5686 11.7634 14.5677 11.636 14.616C11.5085 14.6643 11.4068 14.7581 11.3533 14.8765C11.3267 14.9352 11.3128 14.9982 11.3123 15.0619C11.3118 15.1256 11.3247 15.1888 11.3503 15.2479C11.3759 15.3069 11.4136 15.3607 11.4614 15.4061C11.5092 15.4514 11.5661 15.4876 11.6289 15.5124C12.4357 15.8316 13.3237 16.0082 14.2529 16.0082C17.9699 16.0082 20.9861 13.1787 20.9943 9.70286L21 7.27736C21.0002 7.21365 20.9869 7.15053 20.961 7.09161C20.935 7.0327 20.897 6.97914 20.8489 6.93399C20.8008 6.88884 20.7437 6.85299 20.6809 6.82849C20.618 6.80398 20.5506 6.79133 20.4825 6.7912Z" fill="#0B1565"/>
<path d="M36.48 9.74C36.48 10.8067 36.2467 11.7533 35.78 12.58C35.3133 13.3933 34.68 14.0333 33.88 14.5C33.08 14.9667 32.18 15.2 31.18 15.2C30.18 15.2 29.28 14.9667 28.48 14.5C27.68 14.0333 27.04 13.3933 26.56 12.58C26.0933 11.7533 25.86 10.8067 25.86 9.74C25.86 8.66 26.0933 7.71333 26.56 6.9C27.04 6.07333 27.68 5.42667 28.48 4.96C29.28 4.48 30.18 4.24 31.18 4.24C32.18 4.24 33.08 4.48 33.88 4.96C34.68 5.42667 35.3133 6.07333 35.78 6.9C36.2467 7.71333 36.48 8.66 36.48 9.74ZM34.48 9.74C34.48 9.00667 34.3333 8.37333 34.04 7.84C33.7467 7.29333 33.3467 6.86667 32.84 6.56C32.3467 6.24 31.7933 6.08 31.18 6.08C30.5667 6.08 30.0067 6.24 29.5 6.56C28.9933 6.86667 28.5933 7.29333 28.3 7.84C28.0067 8.37333 27.86 9.00667 27.86 9.74C27.86 10.4467 28.0067 11.0733 28.3 11.62C28.5933 12.1667 28.9933 12.5933 29.5 12.9C30.0067 13.2067 30.5667 13.36 31.18 13.36C31.7933 13.36 32.3467 13.2067 32.84 12.9C33.3467 12.5933 33.7467 12.1667 34.04 11.62C34.3333 11.0733 34.48 10.4467 34.48 9.74ZM38.6038 4.6H43.3038C43.5704 4.6 43.7904 4.69333 43.9638 4.88C44.1504 5.05333 44.2438 5.27333 44.2438 5.54C44.2438 5.79333 44.1504 6.00667 43.9638 6.18C43.7904 6.35333 43.5704 6.44 43.3038 6.44H38.6038C38.3371 6.44 38.1104 6.35333 37.9238 6.18C37.7504 5.99333 37.6638 5.77333 37.6638 5.52C37.6638 5.25333 37.7504 5.03333 37.9238 4.86C38.1104 4.68667 38.3371 4.6 38.6038 4.6ZM40.7038 2C40.9971 2 41.2371 2.1 41.4238 2.3C41.6104 2.48667 41.7038 2.72667 41.7038 3.02V12.3C41.7038 12.54 41.7438 12.7333 41.8238 12.88C41.9038 13.0267 42.0104 13.1267 42.1438 13.18C42.2904 13.2333 42.4371 13.26 42.5838 13.26C42.7304 13.26 42.8571 13.2333 42.9638 13.18C43.0838 13.1267 43.2238 13.1 43.3838 13.1C43.5438 13.1 43.6904 13.1733 43.8238 13.32C43.9571 13.4667 44.0238 13.6667 44.0238 13.92C44.0238 14.24 43.8504 14.5 43.5038 14.7C43.1571 14.9 42.7838 15 42.3838 15C42.1571 15 41.8904 14.98 41.5838 14.94C41.2771 14.9 40.9771 14.8 40.6838 14.64C40.4038 14.48 40.1704 14.2267 39.9837 13.88C39.7971 13.52 39.7038 13.02 39.7038 12.38V3.02C39.7038 2.72667 39.7971 2.48667 39.9837 2.3C40.1837 2.1 40.4238 2 40.7038 2ZM46.3186 4.6H51.0186C51.2853 4.6 51.5053 4.69333 51.6786 4.88C51.8653 5.05333 51.9586 5.27333 51.9586 5.54C51.9586 5.79333 51.8653 6.00667 51.6786 6.18C51.5053 6.35333 51.2853 6.44 51.0186 6.44H46.3186C46.0519 6.44 45.8253 6.35333 45.6386 6.18C45.4653 5.99333 45.3786 5.77333 45.3786 5.52C45.3786 5.25333 45.4653 5.03333 45.6386 4.86C45.8253 4.68667 46.0519 4.6 46.3186 4.6ZM48.4186 2C48.7119 2 48.9519 2.1 49.1386 2.3C49.3253 2.48667 49.4186 2.72667 49.4186 3.02V12.3C49.4186 12.54 49.4586 12.7333 49.5386 12.88C49.6186 13.0267 49.7253 13.1267 49.8586 13.18C50.0053 13.2333 50.1519 13.26 50.2986 13.26C50.4453 13.26 50.5719 13.2333 50.6786 13.18C50.7986 13.1267 50.9386 13.1 51.0986 13.1C51.2586 13.1 51.4053 13.1733 51.5386 13.32C51.6719 13.4667 51.7386 13.6667 51.7386 13.92C51.7386 14.24 51.5653 14.5 51.2186 14.7C50.8719 14.9 50.4986 15 50.0986 15C49.8719 15 49.6053 14.98 49.2986 14.94C48.9919 14.9 48.6919 14.8 48.3986 14.64C48.1186 14.48 47.8853 14.2267 47.6986 13.88C47.5119 13.52 47.4186 13.02 47.4186 12.38V3.02C47.4186 2.72667 47.5119 2.48667 47.6986 2.3C47.8986 2.1 48.1386 2 48.4186 2ZM64.1558 9.74C64.1558 10.8067 63.9224 11.7533 63.4558 12.58C62.9891 13.3933 62.3558 14.0333 61.5558 14.5C60.7558 14.9667 59.8558 15.2 58.8558 15.2C57.8558 15.2 56.9558 14.9667 56.1558 14.5C55.3558 14.0333 54.7158 13.3933 54.2358 12.58C53.7691 11.7533 53.5358 10.8067 53.5358 9.74C53.5358 8.66 53.7691 7.71333 54.2358 6.9C54.7158 6.07333 55.3558 5.42667 56.1558 4.96C56.9558 4.48 57.8558 4.24 58.8558 4.24C59.8558 4.24 60.7558 4.48 61.5558 4.96C62.3558 5.42667 62.9891 6.07333 63.4558 6.9C63.9224 7.71333 64.1558 8.66 64.1558 9.74ZM62.1558 9.74C62.1558 9.00667 62.0091 8.37333 61.7158 7.84C61.4224 7.29333 61.0224 6.86667 60.5158 6.56C60.0224 6.24 59.4691 6.08 58.8558 6.08C58.2424 6.08 57.6824 6.24 57.1758 6.56C56.6691 6.86667 56.2691 7.29333 55.9758 7.84C55.6824 8.37333 55.5358 9.00667 55.5358 9.74C55.5358 10.4467 55.6824 11.0733 55.9758 11.62C56.2691 12.1667 56.6691 12.5933 57.1758 12.9C57.6824 13.2067 58.2424 13.36 58.8558 13.36C59.4691 13.36 60.0224 13.2067 60.5158 12.9C61.0224 12.5933 61.4224 12.1667 61.7158 11.62C62.0091 11.0733 62.1558 10.4467 62.1558 9.74Z" fill="#0B1565"/>
</svg>
